<svg width="195" height="93" viewBox="0 0 195 93" fill="none" xmlns="http://www.w3.org/2000/svg">
<g clip-path="url(#clip0)">
<path d="M26.6317 20.7547H33.6959L13.3202 41.0468L18.8961 25.9168L19.1441 25.2439H18.427H11.3442L31.2865 4.90993L26.158 20.0947L25.9351 20.7547H26.6317Z" fill="url(#paint0_linear)" stroke="url(#paint1_linear)"/>
<path d="M7.63076 72.4L7.31076 73.6H10.0908L9.79076 72.4C9.6041 71.7467 9.4241 71.0533 9.25076 70.32C9.07743 69.5867 8.9041 68.88 8.73076 68.2H8.65076C8.49076 68.8933 8.3241 69.6067 8.15076 70.34C7.99076 71.06 7.81743 71.7467 7.63076 72.4ZM2.91076 79L6.99076 65.96H10.5308L14.6108 79H11.4908L10.6908 75.9H6.71076L5.91076 79H2.91076ZM17.9262 79V82.44H15.3862L15.1062 78.62V76.7H15.7262C15.8462 76.6333 15.9596 76.54 16.0662 76.42C16.1729 76.2867 16.2729 76.0867 16.3662 75.82C16.4596 75.54 16.5462 75.18 16.6262 74.74C16.7196 74.3 16.8062 73.7267 16.8862 73.02L17.3462 69.08H24.7462V76.7H26.3262V78.62L26.0462 82.44H23.5262V79H17.9262ZM19.4262 73.68C19.3596 74.3333 19.2529 74.9067 19.1062 75.4C18.9596 75.8933 18.7929 76.3267 18.6062 76.7H21.8062V71.38H19.6862L19.4262 73.68ZM27.8659 79V69.08H31.2259L32.4659 72.48C32.5993 72.88 32.7193 73.2667 32.8259 73.64C32.9459 74 33.0593 74.3533 33.1659 74.7H33.2459C33.3659 74.3533 33.4859 74 33.6059 73.64C33.7259 73.2667 33.8459 72.88 33.9659 72.48L35.1259 69.08H38.4659V79H35.8659V76.46C35.8659 76.1933 35.8726 75.8733 35.8859 75.5C35.9126 75.1267 35.9393 74.74 35.9659 74.34C36.0059 73.94 36.0393 73.5533 36.0659 73.18C36.1059 72.7933 36.1393 72.46 36.1659 72.18H36.0859C35.9393 72.62 35.7793 73.0867 35.6059 73.58C35.4326 74.0733 35.2726 74.5333 35.1259 74.96L33.9659 78.14H32.3659L31.1859 74.96C31.0393 74.5333 30.8726 74.0733 30.6859 73.58C30.5126 73.0733 30.3526 72.6067 30.2059 72.18H30.1259C30.1526 72.46 30.1793 72.7933 30.2059 73.18C30.2459 73.5533 30.2793 73.94 30.3059 74.34C30.3459 74.74 30.3793 75.1267 30.4059 75.5C30.4326 75.8733 30.4459 76.1933 30.4459 76.46V79H27.8659ZM41.069 79V69.08H43.909V71.84C43.909 72.3333 43.8824 72.8933 43.829 73.52C43.7757 74.1333 43.7224 74.7467 43.669 75.36H43.729C43.889 75.0533 44.0824 74.7067 44.309 74.32C44.5357 73.92 44.7224 73.5733 44.869 73.28L47.449 69.08H50.129V79H47.289V76.24C47.289 75.7333 47.3157 75.1733 47.369 74.56C47.4224 73.9467 47.4824 73.3333 47.549 72.72H47.469C47.309 73.0267 47.1157 73.38 46.889 73.78C46.6757 74.18 46.489 74.52 46.329 74.8L43.749 79H41.069ZM52.7292 79V69.08H55.6692V72.66H58.8492V69.08H61.7892V79H58.8492V75.22H55.6692V79H52.7292ZM64.3698 79V69.08H67.2098V71.84C67.2098 72.3333 67.1832 72.8933 67.1298 73.52C67.0765 74.1333 67.0232 74.7467 66.9698 75.36H67.0298C67.1898 75.0533 67.3832 74.7067 67.6098 74.32C67.8365 73.92 68.0232 73.5733 68.1698 73.28L70.7498 69.08H73.4298V79H70.5898V76.24C70.5898 75.7333 70.6165 75.1733 70.6698 74.56C70.7232 73.9467 70.7832 73.3333 70.8498 72.72H70.7698C70.6098 73.0267 70.4165 73.38 70.1898 73.78C69.9765 74.18 69.7898 74.52 69.6298 74.8L67.0498 79H64.3698ZM80.35 79.24C79.6566 79.24 79.01 79.1267 78.41 78.9C77.8233 78.66 77.31 78.32 76.87 77.88C76.43 77.44 76.0833 76.9 75.83 76.26C75.5766 75.6067 75.45 74.8667 75.45 74.04C75.45 73.2133 75.59 72.48 75.87 71.84C76.15 71.1867 76.5233 70.64 76.99 70.2C77.47 69.76 78.0233 69.4267 78.65 69.2C79.2766 68.96 79.93 68.84 80.61 68.84C81.2233 68.84 81.7633 68.94 82.23 69.14C82.71 69.34 83.1366 69.5933 83.51 69.9L82.13 71.8C81.6633 71.4133 81.2166 71.22 80.79 71.22C80.07 71.22 79.5033 71.4733 79.09 71.98C78.6766 72.4867 78.47 73.1733 78.47 74.04C78.47 74.9067 78.6766 75.5933 79.09 76.1C79.5166 76.6067 80.05 76.86 80.69 76.86C81.01 76.86 81.3166 76.7933 81.61 76.66C81.9166 76.5133 82.2033 76.34 82.47 76.14L83.63 78.06C83.1366 78.4867 82.6033 78.7933 82.03 78.98C81.4566 79.1533 80.8966 79.24 80.35 79.24ZM87.3106 79V71.38H84.3906V69.08H93.1906V71.38H90.2506V79H87.3106ZM95.0144 82.68V69.08H97.4144L97.6144 70.06H97.6944C98.081 69.7133 98.5144 69.4267 98.9944 69.2C99.4877 68.96 99.9944 68.84 100.514 68.84C101.114 68.84 101.654 68.96 102.134 69.2C102.614 69.44 103.021 69.78 103.354 70.22C103.688 70.66 103.941 71.1933 104.114 71.82C104.301 72.4333 104.394 73.12 104.394 73.88C104.394 74.7333 104.274 75.4933 104.034 76.16C103.808 76.8133 103.494 77.3733 103.094 77.84C102.708 78.2933 102.261 78.64 101.754 78.88C101.261 79.12 100.748 79.24 100.214 79.24C99.7877 79.24 99.3744 79.1533 98.9744 78.98C98.5744 78.7933 98.201 78.5333 97.8544 78.2L97.9544 79.78V82.68H95.0144ZM99.5344 76.84C100.041 76.84 100.474 76.6133 100.834 76.16C101.194 75.6933 101.374 74.9467 101.374 73.92C101.374 72.1333 100.801 71.24 99.6544 71.24C99.081 71.24 98.5144 71.54 97.9544 72.14V76.2C98.221 76.44 98.4877 76.6067 98.7544 76.7C99.021 76.7933 99.281 76.84 99.5344 76.84ZM106.479 79V69.08H109.319V71.84C109.319 72.3333 109.293 72.8933 109.239 73.52C109.186 74.1333 109.133 74.7467 109.079 75.36H109.139C109.299 75.0533 109.493 74.7067 109.719 74.32C109.946 73.92 110.133 73.5733 110.279 73.28L112.859 69.08H115.539V79H112.699V76.24C112.699 75.7333 112.726 75.1733 112.779 74.56C112.833 73.9467 112.893 73.3333 112.959 72.72H112.879C112.719 73.0267 112.526 73.38 112.299 73.78C112.086 74.18 111.899 74.52 111.739 74.8L109.159 79H106.479ZM118.139 82.68V69.08H120.539L120.739 70.06H120.819C121.206 69.7133 121.639 69.4267 122.119 69.2C122.613 68.96 123.119 68.84 123.639 68.84C124.239 68.84 124.779 68.96 125.259 69.2C125.739 69.44 126.146 69.78 126.479 70.22C126.813 70.66 127.066 71.1933 127.239 71.82C127.426 72.4333 127.519 73.12 127.519 73.88C127.519 74.7333 127.399 75.4933 127.159 76.16C126.933 76.8133 126.619 77.3733 126.219 77.84C125.833 78.2933 125.386 78.64 124.879 78.88C124.386 79.12 123.873 79.24 123.339 79.24C122.913 79.24 122.499 79.1533 122.099 78.98C121.699 78.7933 121.326 78.5333 120.979 78.2L121.079 79.78V82.68H118.139ZM122.659 76.84C123.166 76.84 123.599 76.6133 123.959 76.16C124.319 75.6933 124.499 74.9467 124.499 73.92C124.499 72.1333 123.926 71.24 122.779 71.24C122.206 71.24 121.639 71.54 121.079 72.14V76.2C121.346 76.44 121.613 76.6067 121.879 76.7C122.146 76.7933 122.406 76.84 122.659 76.84ZM133.864 79.24C133.238 79.24 132.631 79.1267 132.044 78.9C131.458 78.66 130.938 78.32 130.484 77.88C130.044 77.44 129.691 76.9 129.424 76.26C129.158 75.6067 129.024 74.8667 129.024 74.04C129.024 73.2133 129.158 72.48 129.424 71.84C129.691 71.1867 130.044 70.64 130.484 70.2C130.938 69.76 131.458 69.4267 132.044 69.2C132.631 68.96 133.238 68.84 133.864 68.84C134.491 68.84 135.091 68.96 135.664 69.2C136.251 69.4267 136.764 69.76 137.204 70.2C137.658 70.64 138.018 71.1867 138.284 71.84C138.551 72.48 138.684 73.2133 138.684 74.04C138.684 74.8667 138.551 75.6067 138.284 76.26C138.018 76.9 137.658 77.44 137.204 77.88C136.764 78.32 136.251 78.66 135.664 78.9C135.091 79.1267 134.491 79.24 133.864 79.24ZM133.864 76.86C134.464 76.86 134.918 76.6067 135.224 76.1C135.531 75.5933 135.684 74.9067 135.684 74.04C135.684 73.1733 135.531 72.4867 135.224 71.98C134.918 71.4733 134.464 71.22 133.864 71.22C133.251 71.22 132.791 71.4733 132.484 71.98C132.191 72.4867 132.044 73.1733 132.044 74.04C132.044 74.9067 132.191 75.5933 132.484 76.1C132.791 76.6067 133.251 76.86 133.864 76.86ZM140.698 79V69.08H144.918C145.478 69.08 145.998 69.1267 146.478 69.22C146.958 69.3 147.378 69.4467 147.738 69.66C148.098 69.86 148.378 70.1267 148.578 70.46C148.791 70.7933 148.898 71.2067 148.898 71.7C148.898 72.1267 148.771 72.5333 148.518 72.92C148.265 73.3067 147.838 73.58 147.238 73.74V73.82C147.865 73.9667 148.358 74.22 148.718 74.58C149.091 74.94 149.278 75.46 149.278 76.14C149.278 76.6467 149.165 77.0867 148.938 77.46C148.725 77.82 148.431 78.1133 148.058 78.34C147.685 78.5667 147.245 78.7333 146.738 78.84C146.245 78.9467 145.718 79 145.158 79H140.698ZM143.558 72.96H144.718C145.211 72.96 145.565 72.88 145.778 72.72C145.991 72.5467 146.098 72.3067 146.098 72C146.098 71.6933 145.991 71.4533 145.778 71.28C145.578 71.1067 145.231 71.02 144.738 71.02H143.558V72.96ZM143.558 77.06H144.978C145.511 77.06 145.885 76.96 146.098 76.76C146.325 76.5467 146.438 76.2733 146.438 75.94C146.438 75.6467 146.318 75.4 146.078 75.2C145.851 75 145.478 74.9 144.958 74.9H143.558V77.06ZM153.764 79.24C153.311 79.24 152.898 79.16 152.524 79C152.164 78.8533 151.858 78.6467 151.604 78.38C151.351 78.1 151.151 77.78 151.004 77.42C150.871 77.06 150.804 76.6667 150.804 76.24C150.804 75.2 151.244 74.3867 152.124 73.8C153.004 73.2133 154.424 72.82 156.384 72.62C156.358 72.18 156.224 71.8333 155.984 71.58C155.758 71.3133 155.371 71.18 154.824 71.18C154.398 71.18 153.971 71.26 153.544 71.42C153.131 71.58 152.684 71.8 152.204 72.08L151.144 70.14C151.784 69.7533 152.451 69.44 153.144 69.2C153.851 68.96 154.598 68.84 155.384 68.84C156.664 68.84 157.638 69.2067 158.304 69.94C158.984 70.66 159.324 71.7867 159.324 73.32V79H156.924L156.724 77.98H156.644C156.218 78.3533 155.771 78.66 155.304 78.9C154.838 79.1267 154.324 79.24 153.764 79.24ZM154.764 76.96C155.098 76.96 155.384 76.8867 155.624 76.74C155.864 76.5933 156.118 76.3867 156.384 76.12V74.38C155.344 74.5267 154.624 74.74 154.224 75.02C153.824 75.3 153.624 75.6333 153.624 76.02C153.624 76.34 153.724 76.58 153.924 76.74C154.138 76.8867 154.418 76.96 154.764 76.96ZM161.811 79V69.08H164.751V72.66H167.931V69.08H170.871V79H167.931V75.22H164.751V79H161.811ZM173.452 79V69.08H176.292V71.84C176.292 72.3333 176.265 72.8933 176.212 73.52C176.159 74.1333 176.105 74.7467 176.052 75.36H176.112C176.272 75.0533 176.465 74.7067 176.692 74.32C176.919 73.92 177.105 73.5733 177.252 73.28L179.832 69.08H182.512V79H179.672V76.24C179.672 75.7333 179.699 75.1733 179.752 74.56C179.805 73.9467 179.865 73.3333 179.932 72.72H179.852C179.692 73.0267 179.499 73.38 179.272 73.78C179.059 74.18 178.872 74.52 178.712 74.8L176.132 79H173.452ZM189.552 79.24C188.845 79.24 188.185 79.1267 187.572 78.9C186.959 78.66 186.425 78.32 185.972 77.88C185.519 77.4267 185.165 76.88 184.912 76.24C184.659 75.6 184.532 74.8667 184.532 74.04C184.532 73.24 184.665 72.52 184.932 71.88C185.199 71.2267 185.545 70.68 185.972 70.24C186.412 69.7867 186.912 69.44 187.472 69.2C188.032 68.96 188.612 68.84 189.212 68.84C189.919 68.84 190.532 68.96 191.052 69.2C191.585 69.44 192.025 69.7733 192.372 70.2C192.732 70.6267 192.999 71.1333 193.172 71.72C193.345 72.2933 193.432 72.92 193.432 73.6C193.432 73.8667 193.419 74.12 193.392 74.36C193.365 74.6 193.339 74.78 193.312 74.9H187.372C187.505 75.62 187.799 76.1533 188.252 76.5C188.719 76.8333 189.285 77 189.952 77C190.659 77 191.372 76.78 192.092 76.34L193.072 78.12C192.565 78.4667 191.999 78.74 191.372 78.94C190.759 79.14 190.152 79.24 189.552 79.24ZM187.352 72.96H190.932C190.932 72.4 190.805 71.9467 190.552 71.6C190.299 71.2533 189.872 71.08 189.272 71.08C188.805 71.08 188.392 71.2333 188.032 71.54C187.685 71.8467 187.459 72.32 187.352 72.96Z" fill="white"/>
</g>
<defs>
<linearGradient id="paint0_linear" x1="22.53" y1="3" x2="22.53" y2="43" gradientUnits="userSpaceOnUse">
<stop stop-color="#28ABE0"/>
<stop offset="1" stop-color="#01A99E"/>
</linearGradient>
<linearGradient id="paint1_linear" x1="22.53" y1="3" x2="22.53" y2="43" gradientUnits="userSpaceOnUse">
<stop stop-color="#28ABE0"/>
<stop offset="1" stop-color="#01A99E"/>
</linearGradient>
<clipPath id="clip0">
<rect width="195" height="93" fill="white"/>
</clipPath>
</defs>
</svg>
