<svg width="109" height="69" viewBox="0 0 109 69" fill="none" xmlns="http://www.w3.org/2000/svg">
<g clip-path="url(#clip0)">
<path d="M4.78118 13.2608L4.78155 13.2604C5.13347 12.9089 5.60393 12.7139 6.10207 12.7139C6.10208 12.7139 6.10209 12.7139 6.1021 12.7139L16.3333 12.7134L18.3211 9.82107L18.3229 9.81845L18.3297 9.80846C18.3301 9.80784 18.3305 9.80722 18.3309 9.80661C18.6115 9.38728 19.1279 9.09003 19.6367 9.09003L19.6509 9.09018L19.6542 9.09029H19.6542H19.6542H19.6542H19.6542H19.6543H19.6543H19.6543H19.6543H19.6543H19.6543H19.6544H19.6544H19.6544H19.6544H19.6544H19.6545H19.6545H19.6545H19.6545H19.6545H19.6546H19.6546H19.6546H19.6546H19.6546H19.6546H19.6547H19.6547H19.6547H19.6547H19.6547H19.6548H19.6548H19.6548H19.6548H19.6548H19.6549H19.6549H19.6549H19.6549H19.6549H19.6549H19.655H19.655H19.655H19.655H19.655H19.6551H19.6551H19.6551H19.6551H19.6551H19.6552H19.6552H19.6552H19.6552H19.6552H19.6552H19.6553H19.6553H19.6553H19.6553H19.6553H19.6554H19.6554H19.6554H19.6554H19.6554H19.6555H19.6555H19.6555H19.6555H19.6555H19.6555H19.6556H19.6556H19.6556H19.6556H19.6556H19.6557H19.6557H19.6557H19.6557H19.6557H19.6558H19.6558H19.6558H19.6558H19.6558H19.6558H19.6559H19.6559H19.6559H19.6559H19.6559H19.656H19.656H19.656H19.656H19.656H19.6561H19.6561H19.6561H19.6561H19.6561H19.6561H19.6562H19.6562H19.6562H19.6562H19.6562H19.6563H19.6563H19.6563H19.6563H19.6563H19.6564H19.6564H19.6564H19.6564H19.6564H19.6564H19.6565H19.6565H19.6565H19.6565H19.6565H19.6566H19.6566H19.6566H19.6566H19.6566H19.6567H19.6567H19.6567H19.6567H19.6567H19.6567H19.6568H19.6568H19.6568H19.6568H19.6568H19.6569H19.6569H19.6569H19.6569H19.6569H19.657H19.657H19.657H19.657H19.657H19.657H19.6571H19.6571H19.6571H19.6571H19.6571H19.6572H19.6572H19.6572H19.6572H19.6572H19.6573H19.6573H19.6573H19.6573H19.6573H19.6573H19.6574H19.6574H19.6574H19.6574H19.6574H19.6575H19.6575H19.6575H19.6575H19.6575H19.6576H19.6576H19.6576H19.6576H19.6576H19.6576H19.6577H19.6577H19.6577H19.6577H19.6577H19.6578H19.6578H19.6578H19.6578H19.6578H19.6579H19.6579H19.6579H19.6579H19.6579H19.6579H19.658H19.658H19.658H19.658H19.658H19.6581H19.6581H19.6581H19.6581H19.6581H19.6582H19.6582H19.6582H19.6582H19.6582H19.6583H19.6583H19.6583H19.6583H19.6583H19.6583H19.6584H19.6584H19.6584H19.6584H19.6584H19.6585H19.6585H19.6585H19.6585H19.6585H19.6586H19.6586H19.6586H19.6586H19.6586H19.6586H19.6587H19.6587H19.6587H19.6587H19.6587H19.6588H19.6588H19.6588H19.6588H19.6588H19.6589H19.6589H19.6589H19.6589H19.6589H19.6589H19.659H19.659H19.659H19.659H19.659H19.6591H19.6591H19.6591H19.6591H19.6591H19.6592H19.6592H19.6592H19.6592H19.6592H19.6592H19.6593H19.6593H19.6593H19.6593H19.6593H19.6594H19.6594H19.6594H19.6594H19.6594H19.6595H19.6595H19.6595H19.6595H19.6595H19.6595H19.6596H19.6596H19.6596H19.6596H19.6596H19.6597H19.6597H19.6597H19.6597H19.6597H19.6598H19.6598H19.6598H19.6598H19.6598H19.6598H19.6599H19.6599H19.6599H19.6599H19.6599H19.66H19.66H19.66H19.66H19.66H19.6601H19.6601H19.6601H19.6601H19.6601H19.6601H19.6602H19.6602H19.6602H19.6602H19.6602H19.6603H19.6603H19.6603H19.6603H19.6603H19.6604H19.6604H19.6604H19.6604H19.6604H19.6604H19.6605H19.6605L32.8987 9.09056C33.3962 9.09056 33.8668 9.2852 34.2189 9.63728C34.571 9.98937 34.7656 10.46 34.7656 10.9575V14.7807H36.5V10.9575C36.5 9.99452 36.126 9.09179 35.4451 8.4109C35.4451 8.41088 35.4451 8.41086 35.4451 8.41083M4.78118 13.2608L18.7459 6.37927C18.9451 6.67808 19.2845 6.85619 19.6543 6.85619H19.657L32.8984 6.85645C33.9935 6.85645 35.024 7.2829 35.7986 8.05728L35.4451 8.41083M4.78118 13.2608C4.42952 13.6128 4.23438 14.083 4.23438 14.5811V29.3488C4.23438 30.3788 5.0716 31.216 6.10156 31.216H15.79V32.9504H6.10156C4.11599 32.9504 2.5 31.3342 2.5 29.3488V7.33203C2.5 5.34644 4.11597 3.73047 6.10156 3.73047H16.379L18.3299 6.65662M4.78118 13.2608L18.3299 6.65662M35.4451 8.41083C34.7643 7.73027 33.861 7.35645 32.8984 7.35645L19.657 7.35619H19.6543C19.1234 7.35619 18.6252 7.09953 18.3299 6.65662M35.4451 8.41083L18.3299 6.65662M25.8323 32.2288L34.9954 22.027L36.2856 23.1858L25.5858 35.099L18.9225 28.7562L20.1182 27.5L25.1156 32.2568L25.4884 32.6117L25.8323 32.2288ZM17.1074 8.55464L17.3781 8.23292L17.1075 7.91103C17.0273 7.81555 16.9534 7.71874 16.8869 7.61891L15.5992 5.68749L15.4508 5.46484H15.1832H6.10156C5.0716 5.46484 4.23438 6.30207 4.23438 7.33203V10.7123V11.4187L4.90057 11.1839C5.28067 11.05 5.6851 10.9795 6.10156 10.9795H6.10159L15.1576 10.979L15.4206 10.979L15.5696 10.7622L16.8885 8.84331L16.8885 8.84332L16.8914 8.83902C16.9562 8.74258 17.0288 8.64802 17.1074 8.55464Z" fill="url(#paint0_linear)" stroke="url(#paint1_linear)"/>
<path d="M8.84 65.24C7.96 65.24 7.15333 65.0867 6.42 64.78C5.7 64.46 5.08 64.0067 4.56 63.42C4.04 62.8333 3.63333 62.12 3.34 61.28C3.06 60.44 2.92 59.4867 2.92 58.42C2.92 57.3533 3.06 56.4067 3.34 55.58C3.63333 54.74 4.04 54.04 4.56 53.48C5.08 52.9067 5.7 52.4733 6.42 52.18C7.15333 51.8733 7.96 51.72 8.84 51.72C9.72 51.72 10.52 51.8733 11.24 52.18C11.9733 52.4733 12.6 52.9067 13.12 53.48C13.64 54.0533 14.04 54.76 14.32 55.6C14.6133 56.4267 14.76 57.3667 14.76 58.42C14.76 59.4867 14.6133 60.44 14.32 61.28C14.04 62.12 13.64 62.8333 13.12 63.42C12.6 64.0067 11.9733 64.46 11.24 64.78C10.52 65.0867 9.72 65.24 8.84 65.24ZM8.84 62.7C9.73333 62.7 10.44 62.32 10.96 61.56C11.48 60.7867 11.74 59.74 11.74 58.42C11.74 57.1133 11.48 56.0933 10.96 55.36C10.44 54.6267 9.73333 54.26 8.84 54.26C7.94667 54.26 7.24 54.6267 6.72 55.36C6.2 56.0933 5.94 57.1133 5.94 58.42C5.94 59.74 6.2 60.7867 6.72 61.56C7.24 62.32 7.94667 62.7 8.84 62.7ZM19.1119 65V57.38H16.1919V55.08H24.9919V57.38H22.0519V65H19.1119ZM32.2756 65V61.62C32.009 61.6867 31.7556 61.7333 31.5156 61.76C31.2756 61.7733 30.949 61.78 30.5356 61.78C29.949 61.78 29.4023 61.7133 28.8956 61.58C28.4023 61.4333 27.9756 61.2067 27.6156 60.9C27.2556 60.5933 26.9756 60.2 26.7756 59.72C26.5756 59.2267 26.4756 58.6333 26.4756 57.94V55.08H29.4156V57.94C29.4156 58.4467 29.549 58.8333 29.8156 59.1C30.0956 59.3533 30.549 59.48 31.1756 59.48C31.389 59.48 31.5756 59.4733 31.7356 59.46C31.909 59.4333 32.089 59.4 32.2756 59.36V55.08H35.2156V65H32.2756ZM42.2517 65.24C41.5451 65.24 40.8851 65.1267 40.2717 64.9C39.6584 64.66 39.1251 64.32 38.6717 63.88C38.2184 63.4267 37.8651 62.88 37.6117 62.24C37.3584 61.6 37.2317 60.8667 37.2317 60.04C37.2317 59.24 37.3651 58.52 37.6317 57.88C37.8984 57.2267 38.2451 56.68 38.6717 56.24C39.1117 55.7867 39.6117 55.44 40.1717 55.2C40.7317 54.96 41.3117 54.84 41.9117 54.84C42.6184 54.84 43.2317 54.96 43.7517 55.2C44.2851 55.44 44.7251 55.7733 45.0717 56.2C45.4317 56.6267 45.6984 57.1333 45.8717 57.72C46.0451 58.2933 46.1317 58.92 46.1317 59.6C46.1317 59.8667 46.1184 60.12 46.0917 60.36C46.0651 60.6 46.0384 60.78 46.0117 60.9H40.0717C40.2051 61.62 40.4984 62.1533 40.9517 62.5C41.4184 62.8333 41.9851 63 42.6517 63C43.3584 63 44.0717 62.78 44.7917 62.34L45.7717 64.12C45.2651 64.4667 44.6984 64.74 44.0717 64.94C43.4584 65.14 42.8517 65.24 42.2517 65.24ZM40.0517 58.96H43.6317C43.6317 58.4 43.5051 57.9467 43.2517 57.6C42.9984 57.2533 42.5717 57.08 41.9717 57.08C41.5051 57.08 41.0917 57.2333 40.7317 57.54C40.3851 57.8467 40.1584 58.32 40.0517 58.96ZM50.108 65V57.38H47.188V55.08H55.988V57.38H53.048V65H50.108ZM57.8117 65V55.08H60.7517V58.66H63.9317V55.08H66.8717V65H63.9317V61.22H60.7517V65H57.8117ZM73.7123 65.24C73.0857 65.24 72.479 65.1267 71.8923 64.9C71.3057 64.66 70.7857 64.32 70.3323 63.88C69.8923 63.44 69.539 62.9 69.2723 62.26C69.0057 61.6067 68.8723 60.8667 68.8723 60.04C68.8723 59.2133 69.0057 58.48 69.2723 57.84C69.539 57.1867 69.8923 56.64 70.3323 56.2C70.7857 55.76 71.3057 55.4267 71.8923 55.2C72.479 54.96 73.0857 54.84 73.7123 54.84C74.339 54.84 74.939 54.96 75.5123 55.2C76.099 55.4267 76.6123 55.76 77.0523 56.2C77.5057 56.64 77.8657 57.1867 78.1323 57.84C78.399 58.48 78.5323 59.2133 78.5323 60.04C78.5323 60.8667 78.399 61.6067 78.1323 62.26C77.8657 62.9 77.5057 63.44 77.0523 63.88C76.6123 64.32 76.099 64.66 75.5123 64.9C74.939 65.1267 74.339 65.24 73.7123 65.24ZM73.7123 62.86C74.3123 62.86 74.7657 62.6067 75.0723 62.1C75.379 61.5933 75.5323 60.9067 75.5323 60.04C75.5323 59.1733 75.379 58.4867 75.0723 57.98C74.7657 57.4733 74.3123 57.22 73.7123 57.22C73.099 57.22 72.639 57.4733 72.3323 57.98C72.039 58.4867 71.8923 59.1733 71.8923 60.04C71.8923 60.9067 72.039 61.5933 72.3323 62.1C72.639 62.6067 73.099 62.86 73.7123 62.86ZM84.8661 65.24C84.1728 65.24 83.5261 65.1267 82.9261 64.9C82.3394 64.66 81.8261 64.32 81.3861 63.88C80.9461 63.44 80.5994 62.9 80.3461 62.26C80.0928 61.6067 79.9661 60.8667 79.9661 60.04C79.9661 59.2133 80.1061 58.48 80.3861 57.84C80.6661 57.1867 81.0394 56.64 81.5061 56.2C81.9861 55.76 82.5394 55.4267 83.1661 55.2C83.7928 54.96 84.4461 54.84 85.1261 54.84C85.7394 54.84 86.2794 54.94 86.7461 55.14C87.2261 55.34 87.6528 55.5933 88.0261 55.9L86.6461 57.8C86.1794 57.4133 85.7328 57.22 85.3061 57.22C84.5861 57.22 84.0194 57.4733 83.6061 57.98C83.1928 58.4867 82.9861 59.1733 82.9861 60.04C82.9861 60.9067 83.1928 61.5933 83.6061 62.1C84.0328 62.6067 84.5661 62.86 85.2061 62.86C85.5261 62.86 85.8328 62.7933 86.1261 62.66C86.4328 62.5133 86.7194 62.34 86.9861 62.14L88.1461 64.06C87.6528 64.4867 87.1194 64.7933 86.5461 64.98C85.9728 65.1533 85.4128 65.24 84.8661 65.24ZM91.8267 65V57.38H88.9067V55.08H97.7067V57.38H94.7667V65H91.8267ZM99.5305 65V55.08H102.47V58.24H103.57C104.17 58.24 104.73 58.3 105.25 58.42C105.77 58.5267 106.217 58.7133 106.59 58.98C106.977 59.2467 107.277 59.5933 107.49 60.02C107.717 60.4467 107.83 60.9667 107.83 61.58C107.83 62.22 107.717 62.76 107.49 63.2C107.277 63.6267 106.977 63.98 106.59 64.26C106.217 64.5267 105.77 64.72 105.25 64.84C104.73 64.9467 104.17 65 103.57 65H99.5305ZM102.47 62.76H103.45C104.49 62.76 105.01 62.36 105.01 61.56C105.01 60.8 104.49 60.42 103.45 60.42H102.47V62.76Z" fill="white"/>
</g>
<defs>
<linearGradient id="paint0_linear" x1="19.5" y1="3.23047" x2="19.5" y2="35.816" gradientUnits="userSpaceOnUse">
<stop stop-color="#28ABE0"/>
<stop offset="1" stop-color="#01A99E"/>
</linearGradient>
<linearGradient id="paint1_linear" x1="19.5" y1="3.23047" x2="19.5" y2="35.816" gradientUnits="userSpaceOnUse">
<stop stop-color="#28ABE0"/>
<stop offset="1" stop-color="#01A99E"/>
</linearGradient>
<clipPath id="clip0">
<rect width="109" height="69" fill="white"/>
</clipPath>
</defs>
</svg>
