<svg width="233" height="33" viewBox="0 0 233 33" fill="none" xmlns="http://www.w3.org/2000/svg">
<path d="M18.548 8.064C22.616 8.064 25.316 10.476 25.316 14.184C25.316 17.964 22.616 20.34 18.548 20.34V8.064ZM18.548 28.008V25.272C26.324 25.272 31.04 20.448 31.04 14.112C31.04 7.776 26.252 3.132 18.548 3.132V0.827998H13.004V3.132C5.264 3.132 0.512 7.776 0.512 14.076C0.512 20.448 5.228 25.272 13.004 25.272V28.008H18.548ZM13.004 20.34C8.936 20.34 6.2 17.964 6.2 14.184C6.2 10.476 8.936 8.064 13.004 8.064V20.34Z" fill="url(#paint0_linear)"/>
<path d="M39.5951 32.868C42.8711 32.868 44.4551 31.392 45.9311 27.468L53.3471 7.704H47.6591L43.4471 20.844L39.0551 7.704H33.2591L40.8191 27.072C40.3511 28.044 39.8471 28.332 38.9111 28.332C38.1911 28.332 37.2911 28.008 36.5711 27.576L34.7351 31.536C36.1391 32.364 37.6151 32.868 39.5951 32.868ZM74.249 7.704H68.777V15.12H62.045V7.704H56.573V27H62.045V19.62H68.777V27H74.249V7.704ZM79.1433 27H84.6153V22.356L87.0993 19.656L92.2473 27H98.7273L90.7353 15.624L97.8273 7.704H91.5273L84.6153 15.624V7.704H79.1433V27ZM116.055 31.536H120.663L121.311 22.32H118.683V7.704H113.211V22.32H106.623V7.704H101.151V27H116.055V31.536ZM142.248 7.704H137.1L129.576 18.972V7.704H124.284V27H129.432L136.956 15.768V27H142.248V7.704ZM156.604 27.432C162.616 27.432 167.08 22.932 167.08 17.388C167.08 11.772 162.652 7.344 156.676 7.344C150.664 7.344 146.2 11.844 146.2 17.388C146.2 23.004 150.628 27.432 156.604 27.432ZM156.676 22.716C153.652 22.716 151.6 20.232 151.6 17.388C151.6 14.472 153.472 12.06 156.604 12.06C159.628 12.06 161.68 14.544 161.68 17.388C161.68 20.304 159.808 22.716 156.676 22.716ZM188.718 7.704H183.246V15.12H176.514V7.704H171.042V27H176.514V19.62H183.246V27H188.718V7.704ZM199.084 27.36C201.748 27.36 203.584 26.388 204.916 24.912V27H210.208V15.804C210.208 13.212 209.56 11.088 208.12 9.648C206.752 8.28 204.592 7.488 201.604 7.488C198.328 7.488 196.24 8.1 194.116 9.036L195.484 13.212C197.248 12.564 198.724 12.168 200.812 12.168C203.548 12.168 204.952 13.428 204.952 15.696V16.02C203.584 15.552 202.18 15.228 200.236 15.228C195.664 15.228 192.46 17.172 192.46 21.384C192.46 25.272 195.448 27.36 199.084 27.36ZM200.74 23.58C198.976 23.58 197.752 22.716 197.752 21.24C197.752 19.44 199.192 18.504 201.532 18.504C202.864 18.504 204.088 18.792 205.024 19.224V20.196C205.024 22.176 203.296 23.58 200.74 23.58ZM217.221 7.704C217.221 21.384 216.141 22.572 214.089 22.572C213.837 22.572 213.153 22.5 212.937 22.464L212.577 26.892C213.297 27.072 214.629 27.216 215.349 27.216C220.173 27.216 222.369 25.164 222.369 12.384H227.265V27H232.737V7.704H217.221Z" fill="white"/>
<defs>
<linearGradient id="paint0_linear" x1="117.5" y1="-8" x2="117.5" y2="42" gradientUnits="userSpaceOnUse">
<stop stop-color="#28ABE0"/>
<stop offset="1" stop-color="#01A99E"/>
</linearGradient>
</defs>
</svg>
