<svg width="58" height="56" viewBox="0 0 58 56" fill="none" xmlns="http://www.w3.org/2000/svg">
<path d="M28.683 15.935C33.076 15.935 36.6504 12.3605 36.6504 7.96758C36.6504 3.57461 33.076 0 28.683 0C24.29 0 20.7156 3.57446 20.7156 7.96743C20.7156 12.3604 24.2899 15.935 28.683 15.935ZM28.683 3.18694C31.3191 3.18694 33.4635 5.33129 33.4635 7.96743C33.4635 10.6036 31.3191 12.7479 28.683 12.7479C26.0469 12.7479 23.9025 10.6036 23.9025 7.96743C23.9025 5.33129 26.0469 3.18694 28.683 3.18694Z" fill="url(#paint0_linear)"/>
<path d="M7.96743 55.9999C12.3604 55.9999 15.9348 52.4255 15.9348 48.0325C15.9348 43.6396 12.3604 40.0649 7.96743 40.0649C3.57446 40.0649 0 43.6394 0 48.0324C0 52.4253 3.57446 55.9999 7.96743 55.9999ZM7.96743 43.2519C10.6036 43.2519 12.7479 45.3962 12.7479 48.0324C12.7479 50.6685 10.6036 52.8129 7.96743 52.8129C5.33129 52.8129 3.18694 50.6685 3.18694 48.0324C3.18694 45.3962 5.33129 43.2519 7.96743 43.2519Z" fill="url(#paint1_linear)"/>
<path d="M49.3981 55.9999C53.7911 55.9999 57.3655 52.4255 57.3655 48.0325C57.3655 43.6396 53.7912 40.0649 49.3981 40.0649C45.005 40.0649 41.4307 43.6394 41.4307 48.0324C41.4307 52.4253 45.0051 55.9999 49.3981 55.9999ZM49.3981 43.2519C52.0342 43.2519 54.1786 45.3962 54.1786 48.0324C54.1786 50.6685 52.0342 52.8129 49.3981 52.8129C46.762 52.8129 44.6176 50.6685 44.6176 48.0324C44.6176 45.3962 46.7621 43.2519 49.3981 43.2519Z" fill="url(#paint2_linear)"/>
<path d="M36.6489 40.4066C37.1172 40.4066 37.5795 40.2012 37.8954 39.809C38.4447 39.1213 38.3327 38.119 37.6464 37.5682L30.2765 31.6724V22.8782C30.2765 21.9974 29.5638 21.2847 28.683 21.2847C27.8022 21.2847 27.0894 21.9973 27.0894 22.8781V31.6734L19.7196 37.568C19.0333 38.119 18.9212 39.1211 19.4705 39.8089C19.7865 40.201 20.2485 40.4065 20.717 40.4065C21.0656 40.4065 21.4174 40.2929 21.7114 40.0579L28.683 34.4807L35.6544 40.0579C35.9486 40.2929 36.3002 40.4066 36.6489 40.4066Z" fill="url(#paint3_linear)"/>
<defs>
<linearGradient id="paint0_linear" x1="28.683" y1="0" x2="28.683" y2="15.935" gradientUnits="userSpaceOnUse">
<stop stop-color="#28ABE0"/>
<stop offset="1" stop-color="#01A99E"/>
</linearGradient>
<linearGradient id="paint1_linear" x1="7.96742" y1="40.0649" x2="7.96742" y2="55.9999" gradientUnits="userSpaceOnUse">
<stop stop-color="#28ABE0"/>
<stop offset="1" stop-color="#01A99E"/>
</linearGradient>
<linearGradient id="paint2_linear" x1="49.3981" y1="40.0649" x2="49.3981" y2="55.9999" gradientUnits="userSpaceOnUse">
<stop stop-color="#28ABE0"/>
<stop offset="1" stop-color="#01A99E"/>
</linearGradient>
<linearGradient id="paint3_linear" x1="28.683" y1="21.2847" x2="28.683" y2="40.4066" gradientUnits="userSpaceOnUse">
<stop stop-color="#28ABE0"/>
<stop offset="1" stop-color="#01A99E"/>
</linearGradient>
</defs>
</svg>
