<svg width="254" height="78" viewBox="0 0 254 78" fill="none" xmlns="http://www.w3.org/2000/svg">
<path d="M2.024 27H20.132V21.96H7.568V1.8H2.024V27Z" fill="url(#paint0_linear)"/>
<path d="M33.2051 27.432C39.2171 27.432 43.6811 22.932 43.6811 17.388C43.6811 11.772 39.2531 7.344 33.2771 7.344C27.2651 7.344 22.8011 11.844 22.8011 17.388C22.8011 23.004 27.2291 27.432 33.2051 27.432ZM33.2771 22.716C30.2531 22.716 28.2011 20.232 28.2011 17.388C28.2011 14.472 30.0731 12.06 33.2051 12.06C36.2291 12.06 38.2811 14.544 38.2811 17.388C38.2811 20.304 36.4091 22.716 33.2771 22.716ZM47.6433 27H53.1153V19.872C53.1153 15.264 55.3473 13.068 58.9833 13.068H59.2713V7.344C56.0313 7.2 54.2313 8.928 53.1153 11.592V7.704H47.6433V27ZM71.3068 27.432C74.7988 27.432 77.3908 26.064 79.1908 23.832L76.0588 21.06C74.5468 22.464 73.2148 23.04 71.3788 23.04C68.9308 23.04 67.2028 21.744 66.6628 19.26H80.0908C80.1268 18.756 80.1628 18.252 80.1628 17.82C80.1628 12.348 77.2108 7.344 70.7668 7.344C65.1508 7.344 61.2268 11.88 61.2268 17.388C61.2268 23.364 65.5108 27.432 71.3068 27.432ZM66.5908 15.84C67.0228 13.356 68.4988 11.736 70.7668 11.736C73.0708 11.736 74.5108 13.392 74.8348 15.84H66.5908ZM84.241 27H89.713V16.236C89.713 13.644 90.973 12.312 93.025 12.312C95.077 12.312 96.229 13.644 96.229 16.236V27H101.701V16.236C101.701 13.644 102.961 12.312 105.013 12.312C107.065 12.312 108.217 13.644 108.217 16.236V27H113.689V14.436C113.689 9.792 111.241 7.344 107.173 7.344C104.545 7.344 102.529 8.424 100.837 10.404C99.829 8.46 97.921 7.344 95.401 7.344C92.629 7.344 90.973 8.82 89.713 10.44V7.704H84.241V27ZM129.349 5.58H135.109V0.719999H129.349V5.58ZM129.493 27H134.965V7.704H129.493V27ZM140.104 32.76H145.576V24.48C146.872 26.028 148.672 27.36 151.588 27.36C156.16 27.36 160.372 23.832 160.372 17.388C160.372 10.872 156.088 7.344 151.588 7.344C148.744 7.344 146.908 8.676 145.576 10.476V7.704H140.104V32.76ZM150.184 22.716C147.628 22.716 145.504 20.592 145.504 17.388C145.504 14.112 147.628 11.988 150.184 11.988C152.74 11.988 154.9 14.112 154.9 17.316C154.9 20.628 152.74 22.716 150.184 22.716ZM171.165 27.36C175.341 27.36 178.545 25.416 178.545 21.132C178.545 17.532 175.413 16.236 172.713 15.336C170.625 14.616 168.789 14.112 168.789 13.032C168.789 12.204 169.473 11.628 170.805 11.628C172.209 11.628 174.117 12.312 176.025 13.428L178.113 9.648C176.025 8.244 173.361 7.416 170.913 7.416C167.025 7.416 163.857 9.612 163.857 13.536C163.857 17.352 166.917 18.612 169.617 19.404C171.741 20.052 173.613 20.448 173.613 21.636C173.613 22.572 172.893 23.148 171.309 23.148C169.509 23.148 167.313 22.356 165.225 20.844L162.885 24.444C165.441 26.46 168.465 27.36 171.165 27.36ZM188.876 27.36C191.648 27.36 193.268 25.884 194.528 24.264V27H200V7.704H194.528V18.468C194.528 21.06 193.196 22.392 191.108 22.392C189.02 22.392 187.796 21.06 187.796 18.468V7.704H182.324V20.196C182.324 24.624 184.736 27.36 188.876 27.36ZM204.897 27H210.369V16.236C210.369 13.644 211.629 12.312 213.681 12.312C215.733 12.312 216.885 13.644 216.885 16.236V27H222.357V16.236C222.357 13.644 223.617 12.312 225.669 12.312C227.721 12.312 228.873 13.644 228.873 16.236V27H234.345V14.436C234.345 9.792 231.897 7.344 227.829 7.344C225.201 7.344 223.185 8.424 221.493 10.404C220.485 8.46 218.577 7.344 216.057 7.344C213.285 7.344 211.629 8.82 210.369 10.44V7.704H204.897V27ZM9.368 77.36C12.212 77.36 14.048 76.028 15.38 74.228V77H20.852V50.72H15.38V60.224C14.084 58.676 12.284 57.344 9.368 57.344C4.796 57.344 0.584 60.872 0.584 67.316C0.584 73.832 4.868 77.36 9.368 77.36ZM10.772 72.716C8.216 72.716 6.056 70.592 6.056 67.388C6.056 64.076 8.216 61.988 10.772 61.988C13.328 61.988 15.452 64.112 15.452 67.316C15.452 70.592 13.328 72.716 10.772 72.716ZM35.209 77.432C41.221 77.432 45.685 72.932 45.685 67.388C45.685 61.772 41.257 57.344 35.281 57.344C29.269 57.344 24.805 61.844 24.805 67.388C24.805 73.004 29.233 77.432 35.209 77.432ZM35.281 72.716C32.257 72.716 30.205 70.232 30.205 67.388C30.205 64.472 32.077 62.06 35.209 62.06C38.233 62.06 40.285 64.544 40.285 67.388C40.285 70.304 38.413 72.716 35.281 72.716ZM49.8992 77H55.3712V50.72H49.8992V77ZM69.9785 77.432C75.9905 77.432 80.4545 72.932 80.4545 67.388C80.4545 61.772 76.0265 57.344 70.0505 57.344C64.0385 57.344 59.5745 61.844 59.5745 67.388C59.5745 73.004 64.0025 77.432 69.9785 77.432ZM70.0505 72.716C67.0265 72.716 64.9745 70.232 64.9745 67.388C64.9745 64.472 66.8465 62.06 69.9785 62.06C73.0025 62.06 75.0545 64.544 75.0545 67.388C75.0545 70.304 73.1825 72.716 70.0505 72.716ZM84.4168 77H89.8888V69.872C89.8888 65.264 92.1208 63.068 95.7568 63.068H96.0448V57.344C92.8048 57.2 91.0048 58.928 89.8888 61.592V57.704H84.4168V77ZM117.025 77.36C121.201 77.36 124.405 75.416 124.405 71.132C124.405 67.532 121.273 66.236 118.573 65.336C116.485 64.616 114.649 64.112 114.649 63.032C114.649 62.204 115.333 61.628 116.665 61.628C118.069 61.628 119.977 62.312 121.885 63.428L123.973 59.648C121.885 58.244 119.221 57.416 116.773 57.416C112.885 57.416 109.717 59.612 109.717 63.536C109.717 67.352 112.777 68.612 115.477 69.404C117.601 70.052 119.473 70.448 119.473 71.636C119.473 72.572 118.753 73.148 117.169 73.148C115.369 73.148 113.173 72.356 111.085 70.844L108.745 74.444C111.301 76.46 114.325 77.36 117.025 77.36ZM128.435 55.58H134.195V50.72H128.435V55.58ZM128.579 77H134.051V57.704H128.579V77ZM145.706 77.324C147.542 77.324 148.874 76.892 150.026 76.208V71.816C149.234 72.248 148.334 72.5 147.326 72.5C146.102 72.5 145.562 71.888 145.562 70.628V62.384H150.098V57.704H145.562V52.772H140.09V57.704H137.786V62.384H140.09V71.528C140.09 75.992 142.358 77.324 145.706 77.324ZM170.397 77.36C173.061 77.36 174.897 76.388 176.229 74.912V77H181.521V65.804C181.521 63.212 180.873 61.088 179.433 59.648C178.065 58.28 175.905 57.488 172.917 57.488C169.641 57.488 167.553 58.1 165.429 59.036L166.797 63.212C168.561 62.564 170.037 62.168 172.125 62.168C174.861 62.168 176.265 63.428 176.265 65.696V66.02C174.897 65.552 173.493 65.228 171.549 65.228C166.977 65.228 163.773 67.172 163.773 71.384C163.773 75.272 166.761 77.36 170.397 77.36ZM172.053 73.58C170.289 73.58 169.065 72.716 169.065 71.24C169.065 69.44 170.505 68.504 172.845 68.504C174.177 68.504 175.401 68.792 176.337 69.224V70.196C176.337 72.176 174.609 73.58 172.053 73.58ZM186.229 77H191.701V66.236C191.701 63.644 192.961 62.312 195.013 62.312C197.065 62.312 198.217 63.644 198.217 66.236V77H203.689V66.236C203.689 63.644 204.949 62.312 207.001 62.312C209.053 62.312 210.205 63.644 210.205 66.236V77H215.677V64.436C215.677 59.792 213.229 57.344 209.161 57.344C206.533 57.344 204.517 58.424 202.825 60.404C201.817 58.46 199.909 57.344 197.389 57.344C194.617 57.344 192.961 58.82 191.701 60.44V57.704H186.229V77ZM229.58 77.432C233.072 77.432 235.664 76.064 237.464 73.832L234.332 71.06C232.82 72.464 231.488 73.04 229.652 73.04C227.204 73.04 225.476 71.744 224.936 69.26H238.364C238.4 68.756 238.436 68.252 238.436 67.82C238.436 62.348 235.484 57.344 229.04 57.344C223.424 57.344 219.5 61.88 219.5 67.388C219.5 73.364 223.784 77.432 229.58 77.432ZM224.864 65.84C225.296 63.356 226.772 61.736 229.04 61.736C231.344 61.736 232.784 63.392 233.108 65.84H224.864ZM249.03 77.324C250.866 77.324 252.198 76.892 253.35 76.208V71.816C252.558 72.248 251.658 72.5 250.65 72.5C249.426 72.5 248.886 71.888 248.886 70.628V62.384H253.422V57.704H248.886V52.772H243.414V57.704H241.11V62.384H243.414V71.528C243.414 75.992 245.682 77.324 249.03 77.324Z" fill="white"/>
<defs>
<linearGradient id="paint0_linear" x1="167" y1="-8" x2="167" y2="92" gradientUnits="userSpaceOnUse">
<stop stop-color="#28ABE0"/>
<stop offset="1" stop-color="#01A99E"/>
</linearGradient>
</defs>
</svg>
