<svg width="117" height="70" viewBox="0 0 117 70" fill="none" xmlns="http://www.w3.org/2000/svg">
<g clip-path="url(#clip0)">
<path d="M34.8871 2.75979H4.11292C2.86503 2.75979 1.85 3.77482 1.85 5.02271V26.2701C1.85 27.518 2.86503 28.5331 4.11292 28.5331H14.5081V29.9205C14.5081 31.247 13.4286 32.3265 12.102 32.3265H9.77801C9.24961 32.3265 8.82117 32.7549 8.82117 33.2833C8.82117 33.8118 9.24961 34.2402 9.77801 34.2402H29.2219C29.7503 34.2402 30.1788 33.8118 30.1788 33.2833C30.1788 32.7549 29.7503 32.3265 29.2219 32.3265H26.8978C25.5713 32.3265 24.4918 31.247 24.4918 29.9205V28.5331H34.8869C36.1348 28.5331 37.1499 27.5181 37.1499 26.2702V5.02271C37.1501 3.77482 36.135 2.75979 34.8871 2.75979ZM23.3133 32.3266H15.6869C16.1503 31.6387 16.4219 30.811 16.4219 29.9206V28.5332H22.5782V29.9206C22.5782 30.8109 22.8498 31.6387 23.3133 32.3266ZM35.2364 26.2702C35.2364 26.4627 35.0796 26.6195 34.8871 26.6195H4.11292C3.92047 26.6195 3.76363 26.4627 3.76363 26.2702V22.1797H35.2364V26.2702ZM35.2364 20.2659H3.76369V5.02271C3.76369 4.83026 3.9205 4.67342 4.11299 4.67342H34.8871C35.0796 4.67342 35.2364 4.83024 35.2364 5.02271V20.2659Z" fill="url(#paint0_linear)" stroke="url(#paint1_linear)" stroke-width="0.3"/>
<path d="M3.54 66V52.96H6.76L8.86 58.76C8.99333 59.1467 9.12 59.5467 9.24 59.96C9.36 60.36 9.48667 60.76 9.62 61.16H9.7C9.83333 60.76 9.95333 60.36 10.06 59.96C10.18 59.5467 10.3067 59.1467 10.44 58.76L12.5 52.96H15.7V66H13.02V61.22C13.02 60.9 13.0333 60.5467 13.06 60.16C13.0867 59.7733 13.12 59.3867 13.16 59C13.2 58.6 13.24 58.2133 13.28 57.84C13.32 57.4533 13.36 57.1 13.4 56.78H13.32L12.26 59.88L10.4 64.86H8.78L6.92 59.88L5.88 56.78H5.8C5.84 57.1 5.88 57.4533 5.92 57.84C5.96 58.2133 6 58.6 6.04 59C6.08 59.3867 6.11333 59.7733 6.14 60.16C6.16667 60.5467 6.18 60.9 6.18 61.22V66H3.54ZM22.7944 66.24C22.1677 66.24 21.561 66.1267 20.9744 65.9C20.3877 65.66 19.8677 65.32 19.4144 64.88C18.9744 64.44 18.621 63.9 18.3544 63.26C18.0877 62.6067 17.9544 61.8667 17.9544 61.04C17.9544 60.2133 18.0877 59.48 18.3544 58.84C18.621 58.1867 18.9744 57.64 19.4144 57.2C19.8677 56.76 20.3877 56.4267 20.9744 56.2C21.561 55.96 22.1677 55.84 22.7944 55.84C23.421 55.84 24.021 55.96 24.5944 56.2C25.181 56.4267 25.6944 56.76 26.1344 57.2C26.5877 57.64 26.9477 58.1867 27.2144 58.84C27.481 59.48 27.6144 60.2133 27.6144 61.04C27.6144 61.8667 27.481 62.6067 27.2144 63.26C26.9477 63.9 26.5877 64.44 26.1344 64.88C25.6944 65.32 25.181 65.66 24.5944 65.9C24.021 66.1267 23.421 66.24 22.7944 66.24ZM22.7944 63.86C23.3944 63.86 23.8477 63.6067 24.1544 63.1C24.461 62.5933 24.6144 61.9067 24.6144 61.04C24.6144 60.1733 24.461 59.4867 24.1544 58.98C23.8477 58.4733 23.3944 58.22 22.7944 58.22C22.181 58.22 21.721 58.4733 21.4144 58.98C21.121 59.4867 20.9744 60.1733 20.9744 61.04C20.9744 61.9067 21.121 62.5933 21.4144 63.1C21.721 63.6067 22.181 63.86 22.7944 63.86ZM29.6281 66V56.08H32.5681V59.66H35.7481V56.08H38.6881V66H35.7481V62.22H32.5681V66H29.6281ZM41.2688 66V56.08H44.1088V58.84C44.1088 59.3333 44.0821 59.8933 44.0288 60.52C43.9754 61.1333 43.9221 61.7467 43.8688 62.36H43.9288C44.0888 62.0533 44.2821 61.7067 44.5088 61.32C44.7354 60.92 44.9221 60.5733 45.0688 60.28L47.6488 56.08H50.3288V66H47.4888V63.24C47.4888 62.7333 47.5154 62.1733 47.5688 61.56C47.6221 60.9467 47.6821 60.3333 47.7488 59.72H47.6688C47.5088 60.0267 47.3154 60.38 47.0888 60.78C46.8754 61.18 46.6888 61.52 46.5288 61.8L43.9488 66H41.2688ZM55.0689 66V58.38H52.1489V56.08H60.9489V58.38H58.0089V66H55.0689ZM66.6811 66.24C66.0544 66.24 65.4478 66.1267 64.8611 65.9C64.2744 65.66 63.7544 65.32 63.3011 64.88C62.8611 64.44 62.5078 63.9 62.2411 63.26C61.9744 62.6067 61.8411 61.8667 61.8411 61.04C61.8411 60.2133 61.9744 59.48 62.2411 58.84C62.5078 58.1867 62.8611 57.64 63.3011 57.2C63.7544 56.76 64.2744 56.4267 64.8611 56.2C65.4478 55.96 66.0544 55.84 66.6811 55.84C67.3078 55.84 67.9078 55.96 68.4811 56.2C69.0678 56.4267 69.5811 56.76 70.0211 57.2C70.4744 57.64 70.8344 58.1867 71.1011 58.84C71.3678 59.48 71.5011 60.2133 71.5011 61.04C71.5011 61.8667 71.3678 62.6067 71.1011 63.26C70.8344 63.9 70.4744 64.44 70.0211 64.88C69.5811 65.32 69.0678 65.66 68.4811 65.9C67.9078 66.1267 67.3078 66.24 66.6811 66.24ZM66.6811 63.86C67.2811 63.86 67.7344 63.6067 68.0411 63.1C68.3478 62.5933 68.5011 61.9067 68.5011 61.04C68.5011 60.1733 68.3478 59.4867 68.0411 58.98C67.7344 58.4733 67.2811 58.22 66.6811 58.22C66.0678 58.22 65.6078 58.4733 65.3011 58.98C65.0078 59.4867 64.8611 60.1733 64.8611 61.04C64.8611 61.9067 65.0078 62.5933 65.3011 63.1C65.6078 63.6067 66.0678 63.86 66.6811 63.86ZM73.5148 69.68V56.08H75.9148L76.1148 57.06H76.1948C76.5815 56.7133 77.0148 56.4267 77.4948 56.2C77.9882 55.96 78.4948 55.84 79.0148 55.84C79.6148 55.84 80.1548 55.96 80.6348 56.2C81.1148 56.44 81.5215 56.78 81.8548 57.22C82.1882 57.66 82.4415 58.1933 82.6148 58.82C82.8015 59.4333 82.8948 60.12 82.8948 60.88C82.8948 61.7333 82.7748 62.4933 82.5348 63.16C82.3082 63.8133 81.9948 64.3733 81.5948 64.84C81.2082 65.2933 80.7615 65.64 80.2548 65.88C79.7615 66.12 79.2482 66.24 78.7148 66.24C78.2882 66.24 77.8748 66.1533 77.4748 65.98C77.0748 65.7933 76.7015 65.5333 76.3548 65.2L76.4548 66.78V69.68H73.5148ZM78.0348 63.84C78.5415 63.84 78.9748 63.6133 79.3348 63.16C79.6948 62.6933 79.8748 61.9467 79.8748 60.92C79.8748 59.1333 79.3015 58.24 78.1548 58.24C77.5815 58.24 77.0148 58.54 76.4548 59.14V63.2C76.7215 63.44 76.9882 63.6067 77.2548 63.7C77.5215 63.7933 77.7815 63.84 78.0348 63.84ZM84.9797 66V56.08H87.8197V58.84C87.8197 59.3333 87.793 59.8933 87.7397 60.52C87.6864 61.1333 87.633 61.7467 87.5797 62.36H87.6397C87.7997 62.0533 87.993 61.7067 88.2197 61.32C88.4464 60.92 88.633 60.5733 88.7797 60.28L91.3597 56.08H94.0397V66H91.1997V63.24C91.1997 62.7333 91.2264 62.1733 91.2797 61.56C91.333 60.9467 91.393 60.3333 91.4597 59.72H91.3797C91.2197 60.0267 91.0264 60.38 90.7997 60.78C90.5864 61.18 90.3997 61.52 90.2397 61.8L87.6597 66H84.9797ZM96.6398 66V56.08H99.5798V59.66H102.76V56.08H105.7V66H102.76V62.22H99.5798V66H96.6398ZM108.28 66V56.08H115.1V58.38H111.22V66H108.28Z" fill="white"/>
</g>
<defs>
<linearGradient id="paint0_linear" x1="19.5" y1="2.90979" x2="19.5" y2="34.0902" gradientUnits="userSpaceOnUse">
<stop stop-color="#28ABE0"/>
<stop offset="1" stop-color="#01A99E"/>
</linearGradient>
<linearGradient id="paint1_linear" x1="19.5" y1="2.90979" x2="19.5" y2="34.0902" gradientUnits="userSpaceOnUse">
<stop stop-color="#28ABE0"/>
<stop offset="1" stop-color="#01A99E"/>
</linearGradient>
<clipPath id="clip0">
<rect width="117" height="70" fill="white"/>
</clipPath>
</defs>
</svg>
